# xmcd CD database file
#
# Track frame offsets:
#                150
#                18642
#                32216
#                51880
#                65045
#                89916
#                106342
#                121108
#                140484
#                151621
#                161929
#                169586
#                181351
#                192339
#                208708
#                219628
#                233162
#                247816
#                260424
#                270386
#                287854
#                300717
#
# Disc length: 4166 seconds
#
# Revision: 3
# Processed by: cddbd v1.5.2PL0 Copyright (c) Steve Scherf et al.
# Submitted via: CDex 1.51
#
DISCID=44104416
DTITLE=Jonathan Richman and The Modern Lovers - Roadrunner, RoadrunnerThe Beserkley Collection [CD1]
DYEAR=2004
DGENRE=AlternRock
TTITLE0=Roadrunner (Twice)
TTITLE1=Astral Plane
TTITLE2=Pablo Picasso
TTITLE3=She Cracked
TTITLE4=Hospital
TTITLE5=Someone I Care About
TTITLE6=Modern World (Alternative Version)
TTITLE7=I'm Straight
TTITLE8=Dignified And Old
TTITLE9=Government Center
TTITLE10=The New Teller
TTITLE11=It Will Stand
TTITLE12=Back in THE USA 
TTITLE13=Rockin' Shopping Center
TTITLE14=New England
TTITLE15=Lonely Financial Zone
TTITLE16=Here Come The Martian Martians
TTITLE17=Amazing Grace
TTITLE18=Rockin' Rockin' Leprechauns
TTITLE19=Summer Morning
TTITLE20=Afternoon
TTITLE21=Egyptian Reggae
EXTD=YEAR: 2004
EXTT0=
EXTT1=
EXTT2=
EXTT3=
EXTT4=
EXTT5=
EXTT6=
EXTT7=
EXTT8=
EXTT9=
EXTT10=
EXTT11=
EXTT12=
EXTT13=
EXTT14=
EXTT15=
EXTT16=
EXTT17=
EXTT18=
EXTT19=
EXTT20=
EXTT21=
PLAYORDER=
